<?xml version="1.0" encoding="utf-8"?>
<svg width="118.61px" height="25.973267px" viewBox="0 0 118.61 25.973267" version="1.1" xmlns:xlink="http://www.w3.org/1999/xlink" xmlns="http://www.w3.org/2000/svg">
  <defs>
    <path d="M95.109 19.3046L93.5153 15.539L87.4684 15.539L91.1403 6.74214L96.5621 19.3046L101.437 19.3046L92.734 0.257791L89.5622 0.257791L80.8591 19.3046L95.109 19.3046Z" id="path_1" />
    <path d="M30.453 19.7733C33.0884 19.7733 35.3124 18.8619 37.1249 17.039C38.8228 15.3515 39.6717 12.9348 39.6717 9.78901C39.6717 6.8411 40.4165 2.99216 38.7186 1.30466C36.9061 -0.518248 33.0884 0.101541 30.453 0.101541L28.2343 0.101541C25.5989 0.101541 23.3749 1.013 21.5624 2.83591C19.8645 4.5234 19.0156 6.8411 19.0156 9.78901C19.0156 12.9348 18.5312 17.1171 20.2187 18.8046C22.0416 20.6275 25.5989 19.7733 28.2343 19.7733L30.453 19.7733Z" id="path_2" />
  </defs>
  <g id="Group-4" transform="translate(55 31)">
    <path d="M112.625 19.3046C114.187 19.3046 115.526 18.914 116.64 18.1327C117.921 17.2369 118.578 15.914 118.609 14.164C118.651 11.7057 117.479 9.94005 115.093 8.86713C113.937 8.45047 112.567 8.13797 110.984 7.92964C109.401 7.7213 108.244 7.48172 107.515 7.21089C106.401 6.81506 105.843 6.26298 105.843 5.55465C105.843 5.04423 105.984 4.64319 106.265 4.35153C106.546 4.05986 106.937 3.91403 107.437 3.91403L115.89 3.91403L117.406 0.242166L107.437 0.242166C105.812 0.242166 104.432 0.705706 103.296 1.63279C102.057 2.63278 101.437 3.94007 101.437 5.55465C101.437 7.65881 102.442 9.19005 104.453 10.1484C105.609 10.5859 107.127 10.9583 109.007 11.2656C110.888 11.5729 112.213 11.8984 112.984 12.2421C113.807 12.6171 114.213 13.2421 114.203 14.1171C114.213 14.6379 114.067 15.039 113.765 15.3202C113.484 15.5286 113.104 15.6327 112.625 15.6327L97.3589 15.6279L95.8433 19.2997L112.625 19.3046Z" id="Path-2" fill="#FD8301" stroke="none" />
    <g id="Path">
      <use xlink:href="#path_1" fill="none" stroke="#0C1016" stroke-width="6" />
      <use stroke="none" fill="#FD8301" xlink:href="#path_1" />
    </g>
    <path d="M70.1716 4.0234L77.1091 4.0234C77.4424 4.0234 77.7549 4.16923 78.0466 4.4609C78.4737 4.87757 78.6872 5.67444 78.6872 6.85152C78.6872 8.01818 78.4737 8.80984 78.0466 9.22651C77.7549 9.51817 77.4424 9.66401 77.1091 9.66401L77.1091 9.66401L71.7341 9.66401L70.1716 13.4452L70.1716 4.0234ZM70.1716 13.4452L77.1091 13.4452C78.932 13.4452 80.4685 12.8202 81.7184 11.5702C82.833 10.4557 83.3903 8.88276 83.3903 6.85152C83.3903 4.82027 82.833 3.24215 81.7184 2.11716C80.4685 0.87758 78.932 0.257791 77.1091 0.257791L77.1091 0.257791L65.4685 0.257791L65.4685 19.3046L70.1716 19.3046L70.1716 13.4452Z" id="pas" fill="#FD8301" stroke="none" />
    <g id="Group-3">
      <path d="M26.0943 19.3556C26.0943 19.3556 25.6708 18.4535 25.5208 17.7785C25.3708 17.1036 25.234 15.4845 25.234 15.4845L9.21872 15.539C8.07289 15.539 7.06768 15.1067 6.2031 14.2421C5.20311 13.2421 4.70311 11.7057 4.70311 9.63276C4.70311 7.75776 5.20311 6.32027 6.2031 5.32027C7.06768 4.45569 8.07289 4.0234 9.21872 4.0234L23.5135 4.0145C23.5135 4.0145 24.1882 2.67566 24.8039 2.00725C25.2029 1.57411 26.381 0.28675 26.381 0.28675L9.21872 0.257791C6.58331 0.257791 4.35936 1.16925 2.54687 2.99216C0.848955 4.67965 0 6.89318 0 9.63276C0 12.5702 0.848955 14.8827 2.54687 16.5702C4.35936 18.3931 6.58331 19.3046 9.21872 19.3046L26.0943 19.3556Z" id="compss" fill="#FFFFFF" fill-rule="evenodd" stroke="none" />
      <path d="M62.7966 19.3046L62.7966 0.257791L59.5154 0.257791L50.2029 15.414L52.2498 18.7108L58.406 8.94526L58.406 19.3046L62.7966 19.3046Z" id="Path" fill="#FD8301" stroke="none" />
      <g id="Path">
        <use xlink:href="#path_2" fill="none" stroke="#090C10" stroke-width="6" />
        <use stroke="none" fill="#FFFFFF" xlink:href="#path_2" />
      </g>
      <path d="M46.0936 19.3046L46.0936 8.94526L49.4686 14.2421L51.5154 10.9609L44.9842 0.257791L41.703 0.257791L41.703 19.3046L46.0936 19.3046Z" id="Path" fill="#FFFFFF" stroke="none" />
      <g id="Group-2" transform="matrix(0.70710665 0.7071069 -0.7071069 0.70710665 33.99606 0.30363345)">
        <path d="M3.87113 7.13119e-14L7.4555 10.0363L0 10.0363L3.87113 7.13119e-14Z" id="Triangle" fill="#C74923" fill-rule="evenodd" stroke="none" />
        <path d="M3.87113 20.0725L7.4555 10.0363L0 10.0363L3.87113 20.0725Z" transform="matrix(1 0 0 -1 0 30.10877)" id="Triangle" fill="#1353A2" fill-rule="evenodd" stroke="none" />
        <path d="M3.72775 11.0399C4.28204 11.0399 4.73138 10.5905 4.73138 10.0363C4.73138 9.48197 4.28204 9.03263 3.72775 9.03263C3.17347 9.03263 2.72413 9.48197 2.72413 10.0363C2.72413 10.5905 3.17347 11.0399 3.72775 11.0399Z" id="Oval" fill="#FFFFFF" fill-rule="evenodd" stroke="none" />
      </g>
    </g>
  </g>
</svg>