<?xml version="1.0" encoding="utf-8"?>
<svg width="11px" height="11px" viewBox="0 0 11 11" version="1.1" xmlns:xlink="http://www.w3.org/1999/xlink" xmlns="http://www.w3.org/2000/svg">
  <path d="M5.501 0L5.499 0Q5.44985 0 5.40165 0.00958814Q5.35345 0.0191763 5.30804 0.0379841Q5.26263 0.0567919 5.22177 0.0840966Q5.18091 0.111401 5.14615 0.146154Q5.1114 0.180906 5.0841 0.22177Q5.05679 0.262635 5.03798 0.308041Q5.01918 0.353447 5.00959 0.40165Q5 0.449852 5 0.499L5 5L0.499 5Q0.449852 5 0.40165 5.00959Q0.353447 5.01918 0.308041 5.03798Q0.262635 5.05679 0.22177 5.0841Q0.180906 5.1114 0.146154 5.14615Q0.111401 5.18091 0.0840966 5.22177Q0.0567919 5.26263 0.0379841 5.30804Q0.0191763 5.35345 0.00958814 5.40165Q0 5.44985 0 5.499L0 5.501Q0 5.55015 0.00958814 5.59835Q0.0191763 5.64655 0.0379841 5.69196Q0.0567919 5.73736 0.0840966 5.77823Q0.111401 5.81909 0.146154 5.85385Q0.180906 5.8886 0.22177 5.9159Q0.262635 5.94321 0.308041 5.96202Q0.353447 5.98082 0.40165 5.99041Q0.449852 6 0.499 6L5 6L5 10.501Q5 10.5501 5.00959 10.5983Q5.01918 10.6466 5.03798 10.692Q5.05679 10.7374 5.0841 10.7782Q5.1114 10.8191 5.14615 10.8538Q5.18091 10.8886 5.22177 10.9159Q5.26263 10.9432 5.30804 10.962Q5.35345 10.9808 5.40165 10.9904Q5.44985 11 5.499 11L5.501 11Q5.55015 11 5.59835 10.9904Q5.64655 10.9808 5.69196 10.962Q5.73736 10.9432 5.77823 10.9159Q5.81909 10.8886 5.85385 10.8538Q5.8886 10.8191 5.9159 10.7782Q5.94321 10.7374 5.96202 10.692Q5.98082 10.6466 5.99041 10.5983Q6 10.5501 6 10.501L6 6L10.501 6Q10.5501 6 10.5983 5.99041Q10.6466 5.98082 10.692 5.96202Q10.7374 5.94321 10.7782 5.9159Q10.8191 5.8886 10.8538 5.85385Q10.8886 5.81909 10.9159 5.77823Q10.9432 5.73736 10.962 5.69196Q10.9808 5.64655 10.9904 5.59835Q11 5.55015 11 5.501L11 5.499Q11 5.44985 10.9904 5.40165Q10.9808 5.35345 10.962 5.30804Q10.9432 5.26263 10.9159 5.22177Q10.8886 5.18091 10.8538 5.14615Q10.8191 5.1114 10.7782 5.0841Q10.7374 5.05679 10.692 5.03798Q10.6466 5.01918 10.5983 5.00959Q10.5501 5 10.501 5L6 5L6 0.499Q6 0.449852 5.99041 0.40165Q5.98082 0.353447 5.96202 0.308041Q5.94321 0.262635 5.9159 0.22177Q5.8886 0.180906 5.85385 0.146154Q5.81909 0.111401 5.77823 0.0840966Q5.73736 0.0567919 5.69196 0.0379841Q5.64655 0.0191763 5.59835 0.00958814Q5.55015 0 5.501 0Z" id="Combined-Shape" fill="#1253A2" fill-rule="evenodd" stroke="none" />
</svg>